<mxfile host="app.diagrams.net" agent="Mozilla/5.0 (Macintosh; Intel Mac OS X 10_15_7) AppleWebKit/537.36 (KHTML, like Gecko) Chrome/128.0.0.0 Safari/537.36" version="24.7.8">
  <diagram name="Page-1" id="LmiuUmgnv__zAsx9lShg">
    <mxGraphModel dx="3731" dy="2037" grid="1" gridSize="10" guides="1" tooltips="1" connect="1" arrows="1" fold="1" page="1" pageScale="1" pageWidth="1654" pageHeight="1169" math="0" shadow="0">
      <root>
        <mxCell id="0" />
        <mxCell id="1" parent="0" />
        <mxCell id="gtHZ6hIYW6Zl_LwmwWwU-5" value="&lt;font style=&quot;font-size: 14px;&quot;&gt;Availability&lt;/font&gt;" style="rounded=0;whiteSpace=wrap;html=1;fillColor=#fad7ac;strokeColor=#b46504;" vertex="1" parent="1">
          <mxGeometry x="240" y="599" width="120" height="40" as="geometry" />
        </mxCell>
        <mxCell id="gtHZ6hIYW6Zl_LwmwWwU-6" value="&lt;span style=&quot;font-size: 14px;&quot;&gt;Modifiability&lt;/span&gt;" style="rounded=0;whiteSpace=wrap;html=1;fillColor=#fad7ac;strokeColor=#b46504;" vertex="1" parent="1">
          <mxGeometry x="240" y="719" width="120" height="40" as="geometry" />
        </mxCell>
        <mxCell id="gtHZ6hIYW6Zl_LwmwWwU-8" value="&lt;font style=&quot;font-size: 14px;&quot;&gt;&amp;nbsp;Akamai&#39;s CDN and caching mechanisms reduce load times by serving cached content&lt;/font&gt;" style="rounded=0;whiteSpace=wrap;html=1;fillColor=#eeeeee;strokeColor=#36393d;" vertex="1" parent="1">
          <mxGeometry x="800" y="9" width="340" height="60" as="geometry" />
        </mxCell>
        <mxCell id="gtHZ6hIYW6Zl_LwmwWwU-12" value="&lt;span style=&quot;font-size: 14px;&quot;&gt;Configured a 5 seconds timeout for External API&#39;s like getting dealers data etc&lt;/span&gt;" style="rounded=0;whiteSpace=wrap;html=1;fillColor=#eeeeee;strokeColor=#36393d;" vertex="1" parent="1">
          <mxGeometry x="800" y="120" width="340" height="60" as="geometry" />
        </mxCell>
        <mxCell id="gtHZ6hIYW6Zl_LwmwWwU-17" value="" style="endArrow=none;html=1;rounded=0;exitX=1;exitY=0.5;exitDx=0;exitDy=0;entryX=0;entryY=0.5;entryDx=0;entryDy=0;" edge="1" parent="1" source="gtHZ6hIYW6Zl_LwmwWwU-1" target="gtHZ6hIYW6Zl_LwmwWwU-4">
          <mxGeometry width="50" height="50" relative="1" as="geometry">
            <mxPoint x="450" y="429" as="sourcePoint" />
            <mxPoint x="500" y="379" as="targetPoint" />
          </mxGeometry>
        </mxCell>
        <mxCell id="gtHZ6hIYW6Zl_LwmwWwU-18" value="" style="endArrow=none;html=1;rounded=0;" edge="1" parent="1">
          <mxGeometry width="50" height="50" relative="1" as="geometry">
            <mxPoint x="200" y="400" as="sourcePoint" />
            <mxPoint x="200" y="100" as="targetPoint" />
          </mxGeometry>
        </mxCell>
        <mxCell id="gtHZ6hIYW6Zl_LwmwWwU-20" value="" style="endArrow=none;html=1;rounded=0;" edge="1" parent="1">
          <mxGeometry width="50" height="50" relative="1" as="geometry">
            <mxPoint x="200" y="260" as="sourcePoint" />
            <mxPoint x="240" y="260" as="targetPoint" />
            <Array as="points" />
          </mxGeometry>
        </mxCell>
        <mxCell id="gtHZ6hIYW6Zl_LwmwWwU-4" value="&lt;font style=&quot;font-size: 14px;&quot;&gt;Security&lt;/font&gt;" style="rounded=0;whiteSpace=wrap;html=1;fillColor=#fad7ac;strokeColor=#b46504;" vertex="1" parent="1">
          <mxGeometry x="240" y="379" width="120" height="40" as="geometry" />
        </mxCell>
        <mxCell id="gtHZ6hIYW6Zl_LwmwWwU-1" value="&lt;font style=&quot;font-size: 14px;&quot; face=&quot;Verdana&quot;&gt;Utility&lt;/font&gt;" style="rounded=0;whiteSpace=wrap;html=1;fillColor=#d0cee2;strokeColor=#56517e;" vertex="1" parent="1">
          <mxGeometry x="40" y="379" width="120" height="40" as="geometry" />
        </mxCell>
        <mxCell id="gtHZ6hIYW6Zl_LwmwWwU-21" value="" style="endArrow=none;html=1;rounded=0;" edge="1" parent="1">
          <mxGeometry width="50" height="50" relative="1" as="geometry">
            <mxPoint x="200" y="99.82" as="sourcePoint" />
            <mxPoint x="240" y="99.82" as="targetPoint" />
            <Array as="points" />
          </mxGeometry>
        </mxCell>
        <mxCell id="gtHZ6hIYW6Zl_LwmwWwU-22" value="" style="endArrow=none;html=1;rounded=0;exitX=1;exitY=0.5;exitDx=0;exitDy=0;" edge="1" parent="1" source="gtHZ6hIYW6Zl_LwmwWwU-2">
          <mxGeometry width="50" height="50" relative="1" as="geometry">
            <mxPoint x="470" y="280" as="sourcePoint" />
            <mxPoint x="440" y="100" as="targetPoint" />
          </mxGeometry>
        </mxCell>
        <mxCell id="gtHZ6hIYW6Zl_LwmwWwU-23" value="" style="endArrow=none;html=1;rounded=0;" edge="1" parent="1">
          <mxGeometry width="50" height="50" relative="1" as="geometry">
            <mxPoint x="440" y="140" as="sourcePoint" />
            <mxPoint x="440" y="60" as="targetPoint" />
          </mxGeometry>
        </mxCell>
        <mxCell id="gtHZ6hIYW6Zl_LwmwWwU-24" value="" style="endArrow=none;html=1;rounded=0;entryX=0;entryY=0.5;entryDx=0;entryDy=0;" edge="1" parent="1" target="gtHZ6hIYW6Zl_LwmwWwU-7">
          <mxGeometry width="50" height="50" relative="1" as="geometry">
            <mxPoint x="440" y="60" as="sourcePoint" />
            <mxPoint x="520" y="230" as="targetPoint" />
          </mxGeometry>
        </mxCell>
        <mxCell id="gtHZ6hIYW6Zl_LwmwWwU-25" value="" style="endArrow=none;html=1;rounded=0;entryX=0;entryY=0.5;entryDx=0;entryDy=0;" edge="1" parent="1">
          <mxGeometry width="50" height="50" relative="1" as="geometry">
            <mxPoint x="440" y="139.70999999999998" as="sourcePoint" />
            <mxPoint x="480" y="139.70999999999998" as="targetPoint" />
          </mxGeometry>
        </mxCell>
        <mxCell id="gtHZ6hIYW6Zl_LwmwWwU-2" value="&lt;font style=&quot;font-size: 14px;&quot;&gt;Performance&lt;/font&gt;" style="rounded=0;whiteSpace=wrap;html=1;fillColor=#fad7ac;strokeColor=#b46504;" vertex="1" parent="1">
          <mxGeometry x="240" y="80" width="120" height="40" as="geometry" />
        </mxCell>
        <mxCell id="gtHZ6hIYW6Zl_LwmwWwU-7" value="&lt;font style=&quot;font-size: 14px;&quot;&gt;Increase Resource Efficiency&lt;/font&gt;" style="rounded=0;whiteSpace=wrap;html=1;fillColor=#cce5ff;strokeColor=#3399FF;" vertex="1" parent="1">
          <mxGeometry x="480" y="40" width="200" height="40" as="geometry" />
        </mxCell>
        <mxCell id="gtHZ6hIYW6Zl_LwmwWwU-11" value="&lt;span style=&quot;font-size: 14px;&quot;&gt;Bound Execution Times&lt;/span&gt;" style="rounded=0;whiteSpace=wrap;html=1;fillColor=#cce5ff;strokeColor=#3399FF;" vertex="1" parent="1">
          <mxGeometry x="480" y="120" width="200" height="40" as="geometry" />
        </mxCell>
        <mxCell id="gtHZ6hIYW6Zl_LwmwWwU-26" value="" style="endArrow=none;html=1;rounded=0;exitX=1;exitY=0.5;exitDx=0;exitDy=0;entryX=0;entryY=0.5;entryDx=0;entryDy=0;" edge="1" parent="1" source="gtHZ6hIYW6Zl_LwmwWwU-3" target="gtHZ6hIYW6Zl_LwmwWwU-13">
          <mxGeometry width="50" height="50" relative="1" as="geometry">
            <mxPoint x="420" y="320" as="sourcePoint" />
            <mxPoint x="470" y="270" as="targetPoint" />
          </mxGeometry>
        </mxCell>
        <mxCell id="gtHZ6hIYW6Zl_LwmwWwU-3" value="&lt;font style=&quot;font-size: 14px;&quot;&gt;Usability&lt;/font&gt;" style="rounded=0;whiteSpace=wrap;html=1;fillColor=#fad7ac;strokeColor=#b46504;" vertex="1" parent="1">
          <mxGeometry x="240" y="238" width="120" height="40" as="geometry" />
        </mxCell>
        <mxCell id="gtHZ6hIYW6Zl_LwmwWwU-27" value="" style="endArrow=none;html=1;rounded=0;entryX=1;entryY=0.5;entryDx=0;entryDy=0;exitX=0;exitY=0.5;exitDx=0;exitDy=0;" edge="1" parent="1" source="gtHZ6hIYW6Zl_LwmwWwU-14" target="gtHZ6hIYW6Zl_LwmwWwU-13">
          <mxGeometry width="50" height="50" relative="1" as="geometry">
            <mxPoint x="420" y="320" as="sourcePoint" />
            <mxPoint x="470" y="270" as="targetPoint" />
          </mxGeometry>
        </mxCell>
        <mxCell id="gtHZ6hIYW6Zl_LwmwWwU-13" value="&lt;span style=&quot;font-size: 14px;&quot;&gt;Support User Initiative&lt;/span&gt;" style="rounded=0;whiteSpace=wrap;html=1;fillColor=#cce5ff;strokeColor=#3399FF;" vertex="1" parent="1">
          <mxGeometry x="480" y="238" width="200" height="40" as="geometry" />
        </mxCell>
        <mxCell id="gtHZ6hIYW6Zl_LwmwWwU-14" value="&lt;span style=&quot;font-size: 14px;&quot;&gt;Providing a back &amp;amp; resume button in all major components to efficiently navigate through the application&lt;/span&gt;" style="rounded=0;whiteSpace=wrap;html=1;fillColor=#eeeeee;strokeColor=#36393d;" vertex="1" parent="1">
          <mxGeometry x="800" y="223" width="340" height="70" as="geometry" />
        </mxCell>
        <mxCell id="gtHZ6hIYW6Zl_LwmwWwU-28" value="" style="endArrow=none;html=1;rounded=0;entryX=1;entryY=0.5;entryDx=0;entryDy=0;" edge="1" parent="1" target="gtHZ6hIYW6Zl_LwmwWwU-7">
          <mxGeometry width="50" height="50" relative="1" as="geometry">
            <mxPoint x="720" y="60" as="sourcePoint" />
            <mxPoint x="470" y="190" as="targetPoint" />
          </mxGeometry>
        </mxCell>
        <mxCell id="gtHZ6hIYW6Zl_LwmwWwU-29" value="" style="endArrow=none;html=1;rounded=0;" edge="1" parent="1">
          <mxGeometry width="50" height="50" relative="1" as="geometry">
            <mxPoint x="720" y="40" as="sourcePoint" />
            <mxPoint x="720" y="60" as="targetPoint" />
          </mxGeometry>
        </mxCell>
        <mxCell id="gtHZ6hIYW6Zl_LwmwWwU-31" value="" style="endArrow=none;html=1;rounded=0;entryX=1;entryY=0.5;entryDx=0;entryDy=0;" edge="1" parent="1">
          <mxGeometry width="50" height="50" relative="1" as="geometry">
            <mxPoint x="720" y="139" as="sourcePoint" />
            <mxPoint x="680" y="139" as="targetPoint" />
          </mxGeometry>
        </mxCell>
        <mxCell id="gtHZ6hIYW6Zl_LwmwWwU-32" value="" style="endArrow=none;html=1;rounded=0;" edge="1" parent="1">
          <mxGeometry width="50" height="50" relative="1" as="geometry">
            <mxPoint x="720" y="139" as="sourcePoint" />
            <mxPoint x="720" y="160" as="targetPoint" />
          </mxGeometry>
        </mxCell>
        <mxCell id="gtHZ6hIYW6Zl_LwmwWwU-33" value="" style="endArrow=none;html=1;rounded=0;" edge="1" parent="1">
          <mxGeometry width="50" height="50" relative="1" as="geometry">
            <mxPoint x="720" y="160" as="sourcePoint" />
            <mxPoint x="800" y="160" as="targetPoint" />
          </mxGeometry>
        </mxCell>
        <mxCell id="gtHZ6hIYW6Zl_LwmwWwU-34" value="" style="endArrow=none;html=1;rounded=0;" edge="1" parent="1">
          <mxGeometry width="50" height="50" relative="1" as="geometry">
            <mxPoint x="720" y="39.78999999999999" as="sourcePoint" />
            <mxPoint x="800" y="39.78999999999999" as="targetPoint" />
          </mxGeometry>
        </mxCell>
        <mxCell id="gtHZ6hIYW6Zl_LwmwWwU-35" value="&lt;span style=&quot;font-size: 14px;&quot;&gt;Access Control&lt;/span&gt;" style="rounded=0;whiteSpace=wrap;html=1;fillColor=#cce5ff;strokeColor=#3399FF;" vertex="1" parent="1">
          <mxGeometry x="480" y="331" width="200" height="40" as="geometry" />
        </mxCell>
        <mxCell id="gtHZ6hIYW6Zl_LwmwWwU-36" value="&lt;span style=&quot;font-size: 14px;&quot;&gt;Implemented secure Authentication &amp;amp; Authorization methods&lt;/span&gt;" style="rounded=0;whiteSpace=wrap;html=1;fillColor=#eeeeee;strokeColor=#36393d;" vertex="1" parent="1">
          <mxGeometry x="800" y="320" width="340" height="70" as="geometry" />
        </mxCell>
        <mxCell id="gtHZ6hIYW6Zl_LwmwWwU-37" value="&lt;span style=&quot;font-size: 14px;&quot;&gt;Data Confidentiality&lt;/span&gt;" style="rounded=0;whiteSpace=wrap;html=1;fillColor=#cce5ff;strokeColor=#3399FF;" vertex="1" parent="1">
          <mxGeometry x="480" y="439" width="200" height="40" as="geometry" />
        </mxCell>
        <mxCell id="gtHZ6hIYW6Zl_LwmwWwU-38" value="&lt;span style=&quot;font-size: 14px;&quot;&gt;All user transaction data are encrypted and stored in the database&lt;/span&gt;" style="rounded=0;whiteSpace=wrap;html=1;fillColor=#eeeeee;strokeColor=#36393d;" vertex="1" parent="1">
          <mxGeometry x="800" y="423" width="340" height="70" as="geometry" />
        </mxCell>
        <mxCell id="gtHZ6hIYW6Zl_LwmwWwU-39" value="" style="endArrow=none;html=1;rounded=0;exitX=1;exitY=0.5;exitDx=0;exitDy=0;" edge="1" parent="1" source="gtHZ6hIYW6Zl_LwmwWwU-4">
          <mxGeometry width="50" height="50" relative="1" as="geometry">
            <mxPoint x="560" y="400" as="sourcePoint" />
            <mxPoint x="440" y="399" as="targetPoint" />
          </mxGeometry>
        </mxCell>
        <mxCell id="gtHZ6hIYW6Zl_LwmwWwU-40" value="" style="endArrow=none;html=1;rounded=0;" edge="1" parent="1">
          <mxGeometry width="50" height="50" relative="1" as="geometry">
            <mxPoint x="440" y="400" as="sourcePoint" />
            <mxPoint x="440" y="350" as="targetPoint" />
          </mxGeometry>
        </mxCell>
        <mxCell id="gtHZ6hIYW6Zl_LwmwWwU-41" value="" style="endArrow=none;html=1;rounded=0;entryX=0;entryY=0.5;entryDx=0;entryDy=0;" edge="1" parent="1">
          <mxGeometry width="50" height="50" relative="1" as="geometry">
            <mxPoint x="440" y="350.57" as="sourcePoint" />
            <mxPoint x="480" y="350.57" as="targetPoint" />
          </mxGeometry>
        </mxCell>
        <mxCell id="gtHZ6hIYW6Zl_LwmwWwU-42" value="" style="endArrow=none;html=1;rounded=0;" edge="1" parent="1">
          <mxGeometry width="50" height="50" relative="1" as="geometry">
            <mxPoint x="440" y="460" as="sourcePoint" />
            <mxPoint x="440" y="400" as="targetPoint" />
          </mxGeometry>
        </mxCell>
        <mxCell id="gtHZ6hIYW6Zl_LwmwWwU-43" value="" style="endArrow=none;html=1;rounded=0;entryX=0;entryY=0.5;entryDx=0;entryDy=0;" edge="1" parent="1">
          <mxGeometry width="50" height="50" relative="1" as="geometry">
            <mxPoint x="440" y="460" as="sourcePoint" />
            <mxPoint x="480" y="460" as="targetPoint" />
          </mxGeometry>
        </mxCell>
        <mxCell id="gtHZ6hIYW6Zl_LwmwWwU-44" value="" style="endArrow=none;html=1;rounded=0;entryX=1;entryY=0.5;entryDx=0;entryDy=0;exitX=0;exitY=0.5;exitDx=0;exitDy=0;" edge="1" parent="1">
          <mxGeometry width="50" height="50" relative="1" as="geometry">
            <mxPoint x="800" y="351.38" as="sourcePoint" />
            <mxPoint x="680" y="351.38" as="targetPoint" />
          </mxGeometry>
        </mxCell>
        <mxCell id="gtHZ6hIYW6Zl_LwmwWwU-45" value="" style="endArrow=none;html=1;rounded=0;entryX=1;entryY=0.5;entryDx=0;entryDy=0;exitX=0;exitY=0.5;exitDx=0;exitDy=0;" edge="1" parent="1">
          <mxGeometry width="50" height="50" relative="1" as="geometry">
            <mxPoint x="800" y="458.37" as="sourcePoint" />
            <mxPoint x="680" y="458.37" as="targetPoint" />
          </mxGeometry>
        </mxCell>
        <mxCell id="gtHZ6hIYW6Zl_LwmwWwU-46" value="&lt;span style=&quot;font-size: 14px;&quot;&gt;Non stop Forwarding&lt;/span&gt;" style="rounded=0;whiteSpace=wrap;html=1;fillColor=#cce5ff;strokeColor=#3399FF;" vertex="1" parent="1">
          <mxGeometry x="480" y="540" width="200" height="40" as="geometry" />
        </mxCell>
        <mxCell id="gtHZ6hIYW6Zl_LwmwWwU-47" value="&lt;span style=&quot;font-size: 14px;&quot;&gt;Implemented a load balancer to distribute the traffic across multiple instances&lt;/span&gt;" style="rounded=0;whiteSpace=wrap;html=1;fillColor=#eeeeee;strokeColor=#36393d;" vertex="1" parent="1">
          <mxGeometry x="800" y="521" width="340" height="70" as="geometry" />
        </mxCell>
        <mxCell id="gtHZ6hIYW6Zl_LwmwWwU-48" value="" style="endArrow=none;html=1;rounded=0;" edge="1" parent="1">
          <mxGeometry width="50" height="50" relative="1" as="geometry">
            <mxPoint x="200" y="740" as="sourcePoint" />
            <mxPoint x="200" y="400" as="targetPoint" />
          </mxGeometry>
        </mxCell>
        <mxCell id="gtHZ6hIYW6Zl_LwmwWwU-50" value="" style="endArrow=none;html=1;rounded=0;" edge="1" parent="1">
          <mxGeometry width="50" height="50" relative="1" as="geometry">
            <mxPoint x="201" y="619" as="sourcePoint" />
            <mxPoint x="241" y="619" as="targetPoint" />
            <Array as="points" />
          </mxGeometry>
        </mxCell>
        <mxCell id="gtHZ6hIYW6Zl_LwmwWwU-51" value="" style="endArrow=none;html=1;rounded=0;exitX=1;exitY=0.5;exitDx=0;exitDy=0;" edge="1" parent="1">
          <mxGeometry width="50" height="50" relative="1" as="geometry">
            <mxPoint x="359" y="619" as="sourcePoint" />
            <mxPoint x="439" y="619" as="targetPoint" />
          </mxGeometry>
        </mxCell>
        <mxCell id="gtHZ6hIYW6Zl_LwmwWwU-52" value="" style="endArrow=none;html=1;rounded=0;" edge="1" parent="1">
          <mxGeometry width="50" height="50" relative="1" as="geometry">
            <mxPoint x="440" y="619" as="sourcePoint" />
            <mxPoint x="440" y="560" as="targetPoint" />
          </mxGeometry>
        </mxCell>
        <mxCell id="gtHZ6hIYW6Zl_LwmwWwU-53" value="" style="endArrow=none;html=1;rounded=0;entryX=0;entryY=0.5;entryDx=0;entryDy=0;" edge="1" parent="1">
          <mxGeometry width="50" height="50" relative="1" as="geometry">
            <mxPoint x="439" y="559" as="sourcePoint" />
            <mxPoint x="479" y="559" as="targetPoint" />
          </mxGeometry>
        </mxCell>
        <mxCell id="gtHZ6hIYW6Zl_LwmwWwU-54" value="" style="endArrow=none;html=1;rounded=0;entryX=1;entryY=0.5;entryDx=0;entryDy=0;exitX=0;exitY=0.5;exitDx=0;exitDy=0;" edge="1" parent="1">
          <mxGeometry width="50" height="50" relative="1" as="geometry">
            <mxPoint x="799" y="559.37" as="sourcePoint" />
            <mxPoint x="679" y="559.37" as="targetPoint" />
          </mxGeometry>
        </mxCell>
        <mxCell id="gtHZ6hIYW6Zl_LwmwWwU-55" value="&lt;span style=&quot;font-size: 14px;&quot;&gt;Exception Handling&lt;/span&gt;" style="rounded=0;whiteSpace=wrap;html=1;fillColor=#cce5ff;strokeColor=#3399FF;" vertex="1" parent="1">
          <mxGeometry x="480" y="639" width="200" height="40" as="geometry" />
        </mxCell>
        <mxCell id="gtHZ6hIYW6Zl_LwmwWwU-56" value="&lt;span style=&quot;font-size: 14px;&quot;&gt;Trigger a mail communication to set of users when any exception occurs&lt;/span&gt;" style="rounded=0;whiteSpace=wrap;html=1;fillColor=#eeeeee;strokeColor=#36393d;" vertex="1" parent="1">
          <mxGeometry x="800" y="620" width="340" height="70" as="geometry" />
        </mxCell>
        <mxCell id="gtHZ6hIYW6Zl_LwmwWwU-57" value="" style="endArrow=none;html=1;rounded=0;" edge="1" parent="1">
          <mxGeometry width="50" height="50" relative="1" as="geometry">
            <mxPoint x="440" y="660" as="sourcePoint" />
            <mxPoint x="440" y="619" as="targetPoint" />
          </mxGeometry>
        </mxCell>
        <mxCell id="gtHZ6hIYW6Zl_LwmwWwU-58" value="" style="endArrow=none;html=1;rounded=0;entryX=0;entryY=0.5;entryDx=0;entryDy=0;" edge="1" parent="1">
          <mxGeometry width="50" height="50" relative="1" as="geometry">
            <mxPoint x="440" y="660" as="sourcePoint" />
            <mxPoint x="480" y="660" as="targetPoint" />
          </mxGeometry>
        </mxCell>
        <mxCell id="gtHZ6hIYW6Zl_LwmwWwU-59" value="" style="endArrow=none;html=1;rounded=0;entryX=1;entryY=0.5;entryDx=0;entryDy=0;exitX=0;exitY=0.5;exitDx=0;exitDy=0;" edge="1" parent="1">
          <mxGeometry width="50" height="50" relative="1" as="geometry">
            <mxPoint x="799" y="658.37" as="sourcePoint" />
            <mxPoint x="679" y="658.37" as="targetPoint" />
          </mxGeometry>
        </mxCell>
        <mxCell id="gtHZ6hIYW6Zl_LwmwWwU-60" value="" style="endArrow=none;html=1;rounded=0;" edge="1" parent="1">
          <mxGeometry width="50" height="50" relative="1" as="geometry">
            <mxPoint x="200" y="740" as="sourcePoint" />
            <mxPoint x="240" y="740" as="targetPoint" />
            <Array as="points" />
          </mxGeometry>
        </mxCell>
        <mxCell id="gtHZ6hIYW6Zl_LwmwWwU-61" value="&lt;span style=&quot;font-size: 14px;&quot;&gt;Reduce coupling&lt;/span&gt;" style="rounded=0;whiteSpace=wrap;html=1;fillColor=#cce5ff;strokeColor=#3399FF;" vertex="1" parent="1">
          <mxGeometry x="480" y="719" width="200" height="40" as="geometry" />
        </mxCell>
        <mxCell id="gtHZ6hIYW6Zl_LwmwWwU-62" value="&lt;span style=&quot;font-size: 14px;&quot;&gt;Entire application is divided into individual modules and API&#39;s in Micro service pattern to reduce coupling between them&lt;/span&gt;" style="rounded=0;whiteSpace=wrap;html=1;fillColor=#eeeeee;strokeColor=#36393d;" vertex="1" parent="1">
          <mxGeometry x="800" y="715" width="340" height="81" as="geometry" />
        </mxCell>
        <mxCell id="gtHZ6hIYW6Zl_LwmwWwU-63" value="" style="endArrow=none;html=1;rounded=0;exitX=1;exitY=0.5;exitDx=0;exitDy=0;entryX=0;entryY=0.5;entryDx=0;entryDy=0;" edge="1" parent="1" target="gtHZ6hIYW6Zl_LwmwWwU-61">
          <mxGeometry width="50" height="50" relative="1" as="geometry">
            <mxPoint x="360" y="740" as="sourcePoint" />
            <mxPoint x="440" y="740" as="targetPoint" />
          </mxGeometry>
        </mxCell>
        <mxCell id="gtHZ6hIYW6Zl_LwmwWwU-64" value="" style="endArrow=none;html=1;rounded=0;entryX=1;entryY=0.5;entryDx=0;entryDy=0;exitX=0;exitY=0.5;exitDx=0;exitDy=0;" edge="1" parent="1">
          <mxGeometry width="50" height="50" relative="1" as="geometry">
            <mxPoint x="800" y="744.37" as="sourcePoint" />
            <mxPoint x="680" y="744.37" as="targetPoint" />
          </mxGeometry>
        </mxCell>
        <mxCell id="gtHZ6hIYW6Zl_LwmwWwU-65" value="&lt;font style=&quot;font-size: 18px;&quot;&gt;(H, H)&lt;/font&gt;" style="text;html=1;align=center;verticalAlign=middle;resizable=0;points=[];autosize=1;strokeColor=none;fillColor=none;" vertex="1" parent="1">
          <mxGeometry x="724" y="3" width="70" height="40" as="geometry" />
        </mxCell>
        <mxCell id="gtHZ6hIYW6Zl_LwmwWwU-66" value="&lt;span style=&quot;color: rgb(0, 0, 0); font-family: Helvetica; font-style: normal; font-variant-ligatures: normal; font-variant-caps: normal; font-weight: 400; letter-spacing: normal; orphans: 2; text-align: center; text-indent: 0px; text-transform: none; widows: 2; word-spacing: 0px; -webkit-text-stroke-width: 0px; white-space: nowrap; background-color: rgb(251, 251, 251); text-decoration-thickness: initial; text-decoration-style: initial; text-decoration-color: initial; float: none; display: inline !important;&quot;&gt;&lt;font style=&quot;font-size: 18px;&quot;&gt;(M, H)&lt;/font&gt;&lt;/span&gt;" style="text;whiteSpace=wrap;html=1;" vertex="1" parent="1">
          <mxGeometry x="733" y="126" width="70" height="40" as="geometry" />
        </mxCell>
        <mxCell id="gtHZ6hIYW6Zl_LwmwWwU-68" value="&lt;span style=&quot;color: rgb(0, 0, 0); font-family: Helvetica; font-size: 18px; font-style: normal; font-variant-ligatures: normal; font-variant-caps: normal; font-weight: 400; letter-spacing: normal; orphans: 2; text-align: center; text-indent: 0px; text-transform: none; widows: 2; word-spacing: 0px; -webkit-text-stroke-width: 0px; white-space: nowrap; background-color: rgb(251, 251, 251); text-decoration-thickness: initial; text-decoration-style: initial; text-decoration-color: initial; display: inline !important; float: none;&quot;&gt;(M, M)&lt;/span&gt;" style="text;whiteSpace=wrap;html=1;" vertex="1" parent="1">
          <mxGeometry x="720" y="226" width="80" height="50" as="geometry" />
        </mxCell>
        <mxCell id="gtHZ6hIYW6Zl_LwmwWwU-69" value="&lt;span style=&quot;color: rgb(0, 0, 0); font-family: Helvetica; font-size: 18px; font-style: normal; font-variant-ligatures: normal; font-variant-caps: normal; font-weight: 400; letter-spacing: normal; orphans: 2; text-align: center; text-indent: 0px; text-transform: none; widows: 2; word-spacing: 0px; -webkit-text-stroke-width: 0px; white-space: nowrap; background-color: rgb(251, 251, 251); text-decoration-thickness: initial; text-decoration-style: initial; text-decoration-color: initial; display: inline !important; float: none;&quot;&gt;(M, H)&lt;/span&gt;" style="text;whiteSpace=wrap;html=1;" vertex="1" parent="1">
          <mxGeometry x="721" y="316" width="80" height="50" as="geometry" />
        </mxCell>
        <mxCell id="gtHZ6hIYW6Zl_LwmwWwU-70" value="&lt;span style=&quot;color: rgb(0, 0, 0); font-family: Helvetica; font-size: 18px; font-style: normal; font-variant-ligatures: normal; font-variant-caps: normal; font-weight: 400; letter-spacing: normal; orphans: 2; text-align: center; text-indent: 0px; text-transform: none; widows: 2; word-spacing: 0px; -webkit-text-stroke-width: 0px; white-space: nowrap; background-color: rgb(251, 251, 251); text-decoration-thickness: initial; text-decoration-style: initial; text-decoration-color: initial; display: inline !important; float: none;&quot;&gt;(M, M)&lt;/span&gt;" style="text;whiteSpace=wrap;html=1;" vertex="1" parent="1">
          <mxGeometry x="719" y="420" width="80" height="50" as="geometry" />
        </mxCell>
        <mxCell id="gtHZ6hIYW6Zl_LwmwWwU-71" value="&lt;span style=&quot;color: rgb(0, 0, 0); font-family: Helvetica; font-size: 18px; font-style: normal; font-variant-ligatures: normal; font-variant-caps: normal; font-weight: 400; letter-spacing: normal; orphans: 2; text-align: center; text-indent: 0px; text-transform: none; widows: 2; word-spacing: 0px; -webkit-text-stroke-width: 0px; white-space: nowrap; background-color: rgb(251, 251, 251); text-decoration-thickness: initial; text-decoration-style: initial; text-decoration-color: initial; display: inline !important; float: none;&quot;&gt;(M, H)&lt;/span&gt;" style="text;whiteSpace=wrap;html=1;" vertex="1" parent="1">
          <mxGeometry x="710" y="521" width="80" height="50" as="geometry" />
        </mxCell>
        <mxCell id="gtHZ6hIYW6Zl_LwmwWwU-72" value="&lt;span style=&quot;color: rgb(0, 0, 0); font-family: Helvetica; font-size: 18px; font-style: normal; font-variant-ligatures: normal; font-variant-caps: normal; font-weight: 400; letter-spacing: normal; orphans: 2; text-align: center; text-indent: 0px; text-transform: none; widows: 2; word-spacing: 0px; -webkit-text-stroke-width: 0px; white-space: nowrap; background-color: rgb(251, 251, 251); text-decoration-thickness: initial; text-decoration-style: initial; text-decoration-color: initial; display: inline !important; float: none;&quot;&gt;(H, M)&lt;/span&gt;" style="text;whiteSpace=wrap;html=1;" vertex="1" parent="1">
          <mxGeometry x="710" y="620" width="80" height="50" as="geometry" />
        </mxCell>
        <mxCell id="gtHZ6hIYW6Zl_LwmwWwU-73" value="&lt;span style=&quot;color: rgb(0, 0, 0); font-family: Helvetica; font-size: 18px; font-style: normal; font-variant-ligatures: normal; font-variant-caps: normal; font-weight: 400; letter-spacing: normal; orphans: 2; text-align: center; text-indent: 0px; text-transform: none; widows: 2; word-spacing: 0px; -webkit-text-stroke-width: 0px; white-space: nowrap; background-color: rgb(251, 251, 251); text-decoration-thickness: initial; text-decoration-style: initial; text-decoration-color: initial; display: inline !important; float: none;&quot;&gt;(M, H)&lt;/span&gt;" style="text;whiteSpace=wrap;html=1;" vertex="1" parent="1">
          <mxGeometry x="710" y="709" width="80" height="50" as="geometry" />
        </mxCell>
      </root>
    </mxGraphModel>
  </diagram>
</mxfile>
